<?xml version="1.0" standalone="no"?>
<!DOCTYPE svg PUBLIC "-//W3C//DTD SVG 20010904//EN"
 "http://www.w3.org/TR/2001/REC-SVG-20010904/DTD/svg10.dtd">
<svg version="1.0" xmlns="http://www.w3.org/2000/svg"
 width="800.000000pt" height="800.000000pt" viewBox="0 0 800.000000 800.000000"
 preserveAspectRatio="xMidYMid meet">
<metadata>
Created by potrace 1.11, written by Peter Selinger 2001-2013
</metadata>
<g transform="translate(0.000000,800.000000) scale(0.100000,-0.100000)"
fill="#000000" stroke="none">
<path d="M0 4000 l0 -4000 4000 0 4000 0 0 4000 0 4000 -4000 0 -4000 0 0
-4000z m2658 2148 c2 -4 10 -8 17 -8 7 0 15 -4 17 -9 2 -4 41 -41 88 -81 47
-40 87 -77 88 -81 2 -5 10 -9 17 -9 7 0 15 -4 17 -9 2 -4 41 -41 88 -81 47
-40 87 -77 88 -81 2 -5 10 -9 17 -9 7 0 15 -4 17 -9 2 -4 41 -41 88 -81 47
-40 87 -77 88 -81 2 -5 10 -9 17 -9 7 0 15 -4 17 -9 2 -4 41 -41 88 -81 47
-40 87 -77 88 -81 2 -5 8 -9 12 -9 5 0 22 -12 38 -27 15 -16 58 -53 95 -83 37
-30 67 -58 67 -62 0 -5 4 -8 10 -8 5 0 22 -12 38 -27 15 -16 58 -53 95 -83 37
-30 67 -58 67 -62 0 -5 4 -8 10 -8 5 0 22 -12 38 -27 15 -16 58 -53 95 -83 37
-30 67 -58 67 -62 0 -5 4 -8 10 -8 5 0 22 -12 38 -27 15 -16 58 -53 95 -83 37
-30 67 -58 67 -62 0 -5 4 -8 10 -8 5 0 22 -12 38 -27 15 -16 58 -53 95 -83 37
-30 67 -58 67 -62 0 -5 4 -8 10 -8 5 0 22 -12 38 -27 15 -16 58 -53 95 -83 37
-30 67 -58 67 -62 0 -5 4 -8 10 -8 5 0 22 -12 38 -27 15 -16 58 -53 95 -83 37
-30 67 -58 67 -62 0 -5 4 -8 10 -8 5 0 22 -12 38 -27 15 -16 58 -53 95 -83 37
-30 67 -58 67 -62 0 -5 6 -8 14 -8 8 0 16 -7 19 -15 6 -13 -34 -52 -172 -170
-13 -11 -31 -27 -40 -36 -9 -8 -45 -39 -81 -69 -36 -29 -75 -64 -87 -76 -12
-13 -26 -24 -32 -24 -5 0 -11 -4 -13 -9 -1 -4 -41 -41 -87 -80 -46 -40 -89
-77 -96 -84 -7 -7 -25 -23 -41 -37 -77 -65 -250 -215 -254 -220 -3 -3 -36 -32
-75 -65 -38 -33 -72 -62 -75 -66 -3 -3 -48 -41 -100 -85 -101 -85 -137 -115
-177 -152 l-25 -23 21 -20 c12 -12 50 -43 84 -72 34 -28 69 -58 78 -66 21 -21
60 -54 134 -116 78 -65 114 -96 134 -116 9 -8 43 -38 76 -65 76 -62 114 -95
134 -115 9 -9 54 -47 101 -85 135 -109 500 -422 552 -473 l48 -46 0 -233 0
-234 -37 31 c-21 16 -55 45 -76 64 -21 20 -60 52 -85 74 -26 21 -56 48 -67 59
-15 16 -475 411 -553 475 -7 6 -41 33 -75 61 -34 28 -69 59 -78 67 -21 20 -58
53 -134 115 -33 27 -67 57 -76 65 -21 20 -58 53 -134 115 -33 27 -67 57 -76
65 -20 20 -57 52 -134 115 -33 27 -71 60 -84 73 -13 13 -27 23 -30 23 -4 0
-26 -18 -50 -40 -23 -22 -45 -40 -47 -40 -3 0 -15 -10 -27 -23 -12 -12 -51
-47 -87 -77 -36 -30 -72 -61 -81 -70 -19 -18 -51 -45 -139 -119 -36 -31 -75
-65 -87 -78 -12 -13 -26 -23 -32 -23 -5 0 -11 -4 -13 -9 -3 -7 -34 -35 -192
-171 -16 -14 -36 -32 -45 -41 -9 -8 -43 -38 -76 -65 -63 -52 -91 -76 -158
-136 -27 -24 -44 -33 -49 -25 -8 14 -11 2868 -2 2890 5 15 8 15 30 -2 26 -21
137 -117 160 -139 8 -7 44 -38 81 -68 38 -31 71 -62 76 -69 4 -8 6 -425 5
-928 -3 -838 -2 -914 13 -908 14 5 113 88 158 132 9 8 45 39 81 69 36 29 75
64 87 76 12 13 26 24 32 24 5 0 11 4 13 9 2 4 41 41 88 81 47 40 87 77 88 81
2 5 8 9 13 9 6 0 20 11 32 24 12 13 51 48 87 77 77 64 117 98 139 120 9 9 48
42 86 74 39 32 99 84 135 115 36 31 76 66 90 78 61 51 77 65 115 101 22 20 69
61 105 90 36 30 75 65 87 77 12 13 26 24 32 24 5 0 11 4 13 9 2 4 41 41 88 81
47 40 87 77 88 81 2 5 8 9 13 9 4 0 23 15 41 33 18 17 49 45 68 60 l35 27 -36
33 c-105 94 -132 117 -140 117 -5 0 -9 3 -9 8 0 4 -30 32 -67 62 -37 30 -80
67 -95 83 -16 15 -33 27 -38 27 -4 0 -10 4 -12 9 -1 4 -41 41 -88 81 -47 40
-86 77 -88 81 -2 5 -10 9 -17 9 -7 0 -15 4 -17 9 -1 4 -41 41 -88 81 -47 40
-86 77 -88 81 -2 5 -10 9 -17 9 -7 0 -15 4 -17 9 -1 4 -41 41 -88 81 -47 40
-86 77 -88 81 -2 5 -8 9 -12 9 -5 0 -22 12 -38 28 -15 15 -58 52 -95 82 -37
30 -67 58 -67 63 0 4 -4 7 -10 7 -5 0 -22 12 -38 28 -15 15 -58 52 -95 82 -37
30 -67 58 -67 63 0 4 -5 7 -10 7 -6 0 -21 10 -33 23 -12 12 -51 46 -87 76 -36
30 -72 62 -81 70 -9 9 -38 34 -64 56 -57 46 -132 111 -150 128 -18 18 -63 56
-130 111 -33 27 -67 57 -76 65 -9 9 -44 40 -78 70 l-61 53 0 213 c0 117 3 220
6 229 5 12 23 1 82 -51 43 -36 79 -70 80 -75z"/>
</g>
</svg>
